<mxfile host="app.diagrams.net" agent="Mozilla/5.0 (Macintosh; Intel Mac OS X 10_15_7) AppleWebKit/537.36 (KHTML, like Gecko) Chrome/131.0.0.0 Safari/537.36" version="24.9.3">
  <diagram name="第 1 页" id="A9ia2CLvwI-rA0mWm02F">
    <mxGraphModel dx="2295" dy="894" grid="1" gridSize="10" guides="1" tooltips="1" connect="1" arrows="1" fold="1" page="1" pageScale="1" pageWidth="827" pageHeight="1169" math="0" shadow="0">
      <root>
        <mxCell id="0" />
        <mxCell id="1" parent="0" />
        <mxCell id="Rc2jb7AlEDWzBGGgiRTG-1" value="品牌" style="rounded=0;whiteSpace=wrap;html=1;fillColor=#008a00;fontColor=#ffffff;strokeColor=#005700;fontStyle=1" vertex="1" parent="1">
          <mxGeometry x="140" y="130" width="50" height="40" as="geometry" />
        </mxCell>
        <mxCell id="Rc2jb7AlEDWzBGGgiRTG-2" value="市场" style="rounded=0;whiteSpace=wrap;html=1;fillColor=#008a00;fontColor=#ffffff;strokeColor=#005700;fontStyle=1" vertex="1" parent="1">
          <mxGeometry x="190" y="130" width="50" height="40" as="geometry" />
        </mxCell>
        <mxCell id="Rc2jb7AlEDWzBGGgiRTG-3" value="货品来源" style="rounded=0;whiteSpace=wrap;html=1;fillColor=#008a00;fontColor=#ffffff;strokeColor=#005700;fontStyle=1" vertex="1" parent="1">
          <mxGeometry x="240" y="130" width="50" height="40" as="geometry" />
        </mxCell>
        <mxCell id="Rc2jb7AlEDWzBGGgiRTG-5" value="支付日期" style="rounded=0;whiteSpace=wrap;html=1;fillColor=#008a00;fontColor=#ffffff;strokeColor=#005700;fontStyle=1" vertex="1" parent="1">
          <mxGeometry x="290" y="130" width="50" height="40" as="geometry" />
        </mxCell>
        <mxCell id="Rc2jb7AlEDWzBGGgiRTG-10" value="BI-客选占比实际值" style="rounded=0;whiteSpace=wrap;html=1;fillColor=#e51400;fontColor=#ffffff;strokeColor=#B20000;fontStyle=1" vertex="1" parent="1">
          <mxGeometry x="90" y="130" width="50" height="40" as="geometry" />
        </mxCell>
        <mxCell id="Rc2jb7AlEDWzBGGgiRTG-81" value="数据组织" style="whiteSpace=wrap;html=1;fontStyle=1;fillColor=#1ba1e2;strokeColor=#006EAF;fontColor=#ffffff;" vertex="1" parent="1">
          <mxGeometry x="-120" y="130" width="120" height="40" as="geometry" />
        </mxCell>
        <mxCell id="Rc2jb7AlEDWzBGGgiRTG-117" value="&lt;span&gt;&lt;font style=&quot;font-size: 23px;&quot;&gt;流入预估-实际值计算&lt;/font&gt;&lt;/span&gt;" style="rounded=0;whiteSpace=wrap;html=1;fontStyle=1" vertex="1" parent="1">
          <mxGeometry x="-130" y="20" width="320" height="60" as="geometry" />
        </mxCell>
        <mxCell id="Rc2jb7AlEDWzBGGgiRTG-119" value="品牌" style="rounded=0;whiteSpace=wrap;html=1;fillColor=#008a00;fontColor=#ffffff;strokeColor=#005700;fontStyle=1" vertex="1" parent="1">
          <mxGeometry x="530" y="130" width="50" height="40" as="geometry" />
        </mxCell>
        <mxCell id="Rc2jb7AlEDWzBGGgiRTG-120" value="市场" style="rounded=0;whiteSpace=wrap;html=1;fillColor=#008a00;fontColor=#ffffff;strokeColor=#005700;fontStyle=1" vertex="1" parent="1">
          <mxGeometry x="580" y="130" width="50" height="40" as="geometry" />
        </mxCell>
        <mxCell id="Rc2jb7AlEDWzBGGgiRTG-121" value="货品来源" style="rounded=0;whiteSpace=wrap;html=1;fillColor=#008a00;fontColor=#ffffff;strokeColor=#005700;fontStyle=1" vertex="1" parent="1">
          <mxGeometry x="630" y="130" width="50" height="40" as="geometry" />
        </mxCell>
        <mxCell id="Rc2jb7AlEDWzBGGgiRTG-122" value="支付日期" style="rounded=0;whiteSpace=wrap;html=1;fillColor=#008a00;fontColor=#ffffff;strokeColor=#005700;fontStyle=1" vertex="1" parent="1">
          <mxGeometry x="680" y="130" width="50" height="40" as="geometry" />
        </mxCell>
        <mxCell id="Rc2jb7AlEDWzBGGgiRTG-123" value="支付方式" style="rounded=0;whiteSpace=wrap;html=1;fontStyle=1;fillColor=#008a00;fontColor=#ffffff;strokeColor=#005700;" vertex="1" parent="1">
          <mxGeometry x="730" y="130" width="50" height="40" as="geometry" />
        </mxCell>
        <mxCell id="Rc2jb7AlEDWzBGGgiRTG-124" value="客选比例预估" style="rounded=0;whiteSpace=wrap;html=1;fillColor=#e51400;fontColor=#ffffff;strokeColor=#B20000;fontStyle=1" vertex="1" parent="1">
          <mxGeometry x="480" y="130" width="50" height="40" as="geometry" />
        </mxCell>
        <mxCell id="Rc2jb7AlEDWzBGGgiRTG-125" value="支付方式占比" style="rounded=0;whiteSpace=wrap;html=1;fontStyle=1" vertex="1" parent="1">
          <mxGeometry x="780" y="130" width="50" height="40" as="geometry" />
        </mxCell>
        <mxCell id="Rc2jb7AlEDWzBGGgiRTG-126" value="发货占比" style="rounded=0;whiteSpace=wrap;html=1;fontStyle=1" vertex="1" parent="1">
          <mxGeometry x="830" y="130" width="50" height="40" as="geometry" />
        </mxCell>
        <mxCell id="Rc2jb7AlEDWzBGGgiRTG-129" value="客选物流类型" style="rounded=0;whiteSpace=wrap;html=1;fillColor=#008a00;fontColor=#ffffff;strokeColor=#005700;fontStyle=1" vertex="1" parent="1">
          <mxGeometry x="340" y="130" width="50" height="40" as="geometry" />
        </mxCell>
        <mxCell id="Rc2jb7AlEDWzBGGgiRTG-132" value="支付件数" style="rounded=0;whiteSpace=wrap;html=1;fontStyle=1" vertex="1" parent="1">
          <mxGeometry x="390" y="130" width="50" height="40" as="geometry" />
        </mxCell>
        <mxCell id="Rc2jb7AlEDWzBGGgiRTG-133" value="市场" style="rounded=0;whiteSpace=wrap;html=1;fillColor=#008a00;fontColor=#ffffff;strokeColor=#005700;fontStyle=1" vertex="1" parent="1">
          <mxGeometry x="970" y="130" width="50" height="40" as="geometry" />
        </mxCell>
        <mxCell id="Rc2jb7AlEDWzBGGgiRTG-134" value="支付日期" style="rounded=0;whiteSpace=wrap;html=1;fillColor=#008a00;fontColor=#ffffff;strokeColor=#005700;fontStyle=1" vertex="1" parent="1">
          <mxGeometry x="1020" y="130" width="50" height="40" as="geometry" />
        </mxCell>
        <mxCell id="Rc2jb7AlEDWzBGGgiRTG-135" value="客选物流类型" style="rounded=0;whiteSpace=wrap;html=1;fillColor=#008a00;fontColor=#ffffff;strokeColor=#005700;fontStyle=1" vertex="1" parent="1">
          <mxGeometry x="1070" y="130" width="50" height="40" as="geometry" />
        </mxCell>
        <mxCell id="Rc2jb7AlEDWzBGGgiRTG-136" value="库存仓" style="rounded=0;whiteSpace=wrap;html=1;fillColor=#008a00;fontColor=#ffffff;strokeColor=#005700;fontStyle=1" vertex="1" parent="1">
          <mxGeometry x="1120" y="130" width="50" height="40" as="geometry" />
        </mxCell>
        <mxCell id="Rc2jb7AlEDWzBGGgiRTG-137" value="合包类型" style="rounded=0;whiteSpace=wrap;html=1;fontStyle=1;fillColor=#008a00;fontColor=#ffffff;strokeColor=#005700;" vertex="1" parent="1">
          <mxGeometry x="1170" y="130" width="50" height="40" as="geometry" />
        </mxCell>
        <mxCell id="Rc2jb7AlEDWzBGGgiRTG-138" value="BI-实际流入件数" style="rounded=0;whiteSpace=wrap;html=1;fillColor=#e51400;fontColor=#ffffff;strokeColor=#B20000;fontStyle=1" vertex="1" parent="1">
          <mxGeometry x="920" y="130" width="50" height="40" as="geometry" />
        </mxCell>
        <mxCell id="Rc2jb7AlEDWzBGGgiRTG-139" value="已流入商品数量" style="rounded=0;whiteSpace=wrap;html=1;fontStyle=1" vertex="1" parent="1">
          <mxGeometry x="1220" y="130" width="50" height="40" as="geometry" />
        </mxCell>
      </root>
    </mxGraphModel>
  </diagram>
</mxfile>
